<svg id="Layer_1" data-name="Layer 1" xmlns="http://www.w3.org/2000/svg" viewBox="0 0 216.74 237.18"><defs><style>.cls-1{stroke:#22b573;stroke-width:2px;}.cls-1,.cls-2,.cls-3{stroke-miterlimit:10;}.cls-2,.cls-3{stroke:#231f20;}.cls-3{fill:#22b573;}</style></defs><path class="cls-1" d="M578.5,1178.8l0,0,0,0a.3.3,0,0,0,0-.08c-.73-1.48-5.65-13,12.77-24.61h0l55.18-32v-64h0c.82-21.83,13.2-23.3,14.84-23.4h.18v95.93h-.24l.11.21Z" transform="translate(-445.87 -943.14)"/><path class="cls-1" d="M446.89,1034.78h.18c1.64.09,14,1.54,14.89,23.36h0l.13,64L517.34,1154h0c18.45,11.59,13.55,23.1,12.82,24.57a.36.36,0,0,0,0,.09l0,0,0,0-82.86-47.79.11-.21h-.23Z" transform="translate(-445.87 -943.14)"/><path class="cls-1" d="M636.48,993.58l0,0,0,0a.56.56,0,0,0,0,.08c-.93,1.36-8.51,11.29-27.62.83h0L554,961.84l-55.6,31.23h0c-19.38,9.94-26.7-.18-27.59-1.57l-.05-.08,0,0v0l83.4-46.84.12.21.13-.21Z" transform="translate(-445.87 -943.14)"/><polygon class="cls-2" points="183.13 82.82 183.13 168.34 181.64 169.2 109.61 210.96 109.61 125.43 111.36 124.41 183.13 82.82"/><polygon class="cls-2" points="106.12 125.43 106.12 211.13 33.93 169.28 32.32 168.34 32.32 82.65 104.36 124.41 106.12 125.43"/><polygon class="cls-2" points="181.24 79.87 109.61 121.38 107.86 122.39 106.12 121.38 34.35 79.79 106.12 38.17 107.72 37.26 109.61 38.34 181.24 79.87"/><polygon class="cls-3" points="183.13 80.96 183.13 82.82 111.36 124.41 109.61 125.43 109.61 210.96 107.72 212.04 106.12 211.13 106.12 125.43 104.36 124.41 32.32 82.65 32.32 80.96 34.35 79.79 106.12 121.38 107.86 122.39 109.61 121.38 181.24 79.87 183.13 80.96"/></svg>